<svg width="16" height="16" viewBox="0 0 16 16" fill="none" xmlns="http://www.w3.org/2000/svg">
    <path fill-rule="evenodd" clip-rule="evenodd" d="M6.5 12C3.467 12 1 9.533 1 6.5C1 3.467 3.467 1 6.5 1C9.533 1 12 3.467 12 6.5C12 9.533 9.533 12 6.5 12ZM15.854 15.146L11.431 10.724C12.406 9.586 13 8.112 13 6.5C13 2.916 10.084 0 6.5 0C2.916 0 0 2.916 0 6.5C0 10.084 2.916 13 6.5 13C8.112 13 9.586 12.406 10.724 11.431L15.146 15.854C15.244 15.951 15.372 16 15.5 16C15.628 16 15.756 15.951 15.854 15.854C16.049 15.658 16.049 15.342 15.854 15.146Z" fill="#121212"/>
</svg>
